<?xml version="1.0" standalone="no"?>
<!DOCTYPE svg PUBLIC "-//W3C//DTD SVG 20010904//EN"
 "http://www.w3.org/TR/2001/REC-SVG-20010904/DTD/svg10.dtd">
<svg version="1.0" xmlns="http://www.w3.org/2000/svg"
 width="260.000000pt" height="260.000000pt" viewBox="0 0 260.000000 260.000000"
 preserveAspectRatio="xMidYMid meet">
<metadata>
Created by potrace 1.11, written by Peter Selinger 2001-2013
</metadata>
<g transform="translate(0.000000,260.000000) scale(0.100000,-0.100000)"
fill="#000000" stroke="none">
<path d="M450 1330 l0 -1000 315 0 315 0 0 253 c1 221 2 250 15 233 8 -10 76
-124 152 -252 l138 -234 358 0 357 0 0 29 c0 18 -59 132 -170 328 l-170 299
74 75 c151 154 215 356 187 589 -39 319 -233 541 -553 634 -133 38 -237 46
-640 46 l-378 0 0 -1000z m870 731 c145 -43 257 -120 330 -226 90 -132 104
-352 33 -504 -38 -80 -140 -179 -228 -221 -38 -19 -72 -35 -73 -36 -2 -2 62
-113 142 -248 80 -135 146 -248 146 -251 0 -3 -20 -5 -45 -5 l-44 0 -143 240
c-133 224 -145 241 -167 235 -44 -11 -225 -24 -338 -25 l-113 0 0 -225 0 -225
-40 0 -40 0 0 761 0 761 253 -5 c223 -4 261 -7 327 -26z"/>
<path d="M828 2015 c-5 -5 -8 -212 -8 -462 l0 -453 164 0 c247 0 373 27 493
107 101 67 158 171 170 308 20 243 -122 425 -375 481 -74 16 -432 31 -444 19z
m448 -258 c27 -14 57 -33 66 -44 49 -53 62 -166 29 -238 -35 -78 -124 -125
-238 -125 l-53 0 0 221 0 222 74 -6 c49 -3 89 -13 122 -30z"/>
</g>
</svg>
